<svg width="112" height="112" viewBox="0 0 112 112" fill="none" xmlns="http://www.w3.org/2000/svg">
<g filter="url(#filter0_d_1011_876)">
<g clip-path="url(#clip0_1011_876)">
<path d="M31.3574 103.646C25.4103 103.376 22.1797 102.386 20.031 101.548C17.1838 100.44 15.1539 99.1199 13.017 96.986C10.8801 94.8521 9.55752 92.8222 8.4549 89.975C7.61679 87.8262 6.6271 84.5956 6.35664 78.6486C6.05944 72.22 6 70.2912 6 54.0045C6 37.7177 6.06538 35.7918 6.35367 29.3574C6.62413 23.4103 7.61976 20.1857 8.45193 18.031C9.5605 15.1838 10.8831 13.1539 13.014 11.014C15.1479 8.88008 17.1778 7.55455 20.028 6.45193C22.1768 5.61381 25.4074 4.62413 31.3544 4.35367C37.7859 4.05944 39.7177 4 55.9985 4C72.2853 4 74.2111 4.06538 80.6456 4.35367C86.5926 4.62413 89.8173 5.61976 91.972 6.45193C94.8192 7.55455 96.8491 8.88008 98.986 11.014C101.123 13.1479 102.44 15.1808 103.548 18.028C104.386 20.1768 105.376 23.4074 105.646 29.3544C105.941 35.7889 106 37.7147 106 54.0015C106 70.2823 105.941 72.2141 105.646 78.6486C105.376 84.5956 104.38 87.8262 103.548 89.975C102.44 92.8222 101.12 94.8521 98.986 96.986C96.8521 99.1199 94.8192 100.44 91.972 101.548C89.8232 102.386 86.5926 103.376 80.6456 103.646C74.2171 103.941 72.2853 104 55.9985 104C39.7177 104 37.7859 103.944 31.3574 103.646" fill="white"/>
<g filter="url(#filter1_d_1011_876)">
<mask id="path-3-outside-1_1011_876" maskUnits="userSpaceOnUse" x="15" y="42" width="81" height="24" fill="black">
<rect fill="white" x="15" y="42" width="81" height="24"/>
<path d="M26.1375 65.384C24.0682 65.384 22.2548 64.904 20.6975 63.944C19.1402 62.9627 17.9242 61.608 17.0495 59.88C16.1962 58.152 15.7695 56.136 15.7695 53.832C15.7695 51.5493 16.2068 49.5333 17.0815 47.784C17.9775 46.0347 19.2362 44.6693 20.8575 43.688C22.5002 42.7067 24.4308 42.216 26.6495 42.216C29.1668 42.216 31.2682 42.824 32.9535 44.04C34.6388 45.2347 35.7162 46.9093 36.1855 49.064H33.0815C32.7828 47.72 32.0788 46.6533 30.9695 45.864C29.8602 45.0747 28.4202 44.68 26.6495 44.68C25.0068 44.68 23.5668 45.0533 22.3295 45.8C21.1135 46.5253 20.1748 47.5707 19.5135 48.936C18.8522 50.3013 18.5215 51.9333 18.5215 53.832C18.5215 55.7307 18.8522 57.3733 19.5135 58.76C20.1748 60.1253 21.0922 61.1707 22.2655 61.896C23.4602 62.6213 24.8255 62.984 26.3615 62.984C28.7508 62.984 30.5535 62.28 31.7695 60.872C32.9855 59.464 33.6788 57.5547 33.8495 55.144H27.3855V53.032H36.6015V65H34.2015L33.9135 60.872H33.8495C33.2948 61.8533 32.6548 62.6853 31.9295 63.368C31.2042 64.0293 30.3615 64.5307 29.4015 64.872C28.4628 65.2133 27.3748 65.384 26.1375 65.384ZM47.806 65.384C46.1633 65.384 44.734 65.0853 43.518 64.488C42.302 63.8907 41.3633 63.0587 40.702 61.992C40.0407 60.9253 39.71 59.688 39.71 58.28H42.526C42.526 59.1547 42.718 59.9653 43.102 60.712C43.5073 61.4373 44.094 62.024 44.862 62.472C45.6513 62.8987 46.6327 63.112 47.806 63.112C48.7873 63.112 49.6407 62.9627 50.366 62.664C51.0913 62.344 51.646 61.9067 52.03 61.352C52.4353 60.776 52.638 60.104 52.638 59.336C52.638 58.4613 52.446 57.7573 52.062 57.224C51.678 56.6693 51.166 56.2213 50.526 55.88C49.886 55.5173 49.1607 55.208 48.35 54.952C47.5393 54.696 46.6967 54.4187 45.822 54.12C43.9873 53.48 42.6327 52.7013 41.758 51.784C40.9047 50.8453 40.478 49.6613 40.478 48.232C40.478 47.0587 40.7553 46.024 41.31 45.128C41.886 44.232 42.6967 43.528 43.742 43.016C44.8087 42.4827 46.0673 42.216 47.518 42.216C48.9473 42.216 50.1847 42.4827 51.23 43.016C52.2967 43.5493 53.1287 44.2853 53.726 45.224C54.3233 46.1413 54.622 47.208 54.622 48.424H51.806C51.806 47.72 51.6353 47.0693 51.294 46.472C50.974 45.8747 50.4833 45.3947 49.822 45.032C49.1607 44.648 48.3393 44.456 47.358 44.456C46.5473 44.456 45.822 44.584 45.182 44.84C44.5633 45.096 44.0727 45.4907 43.71 46.024C43.3687 46.536 43.198 47.1867 43.198 47.976C43.198 48.68 43.3473 49.256 43.646 49.704C43.9447 50.152 44.3713 50.536 44.926 50.856C45.502 51.176 46.1847 51.4853 46.974 51.784C47.7633 52.0613 48.6593 52.3707 49.662 52.712C50.75 53.0747 51.7207 53.5227 52.574 54.056C53.4273 54.568 54.0993 55.2293 54.59 56.04C55.0807 56.8507 55.326 57.8747 55.326 59.112C55.326 60.1787 55.0487 61.192 54.494 62.152C53.9393 63.112 53.1073 63.8907 51.998 64.488C50.8887 65.0853 49.4913 65.384 47.806 65.384ZM65.9698 65.384C64.3271 65.384 62.8978 65.0853 61.6818 64.488C60.4658 63.8907 59.5271 63.0587 58.8657 61.992C58.2044 60.9253 57.8737 59.688 57.8737 58.28H60.6897C60.6897 59.1547 60.8817 59.9653 61.2657 60.712C61.6711 61.4373 62.2578 62.024 63.0258 62.472C63.8151 62.8987 64.7964 63.112 65.9698 63.112C66.9511 63.112 67.8044 62.9627 68.5298 62.664C69.2551 62.344 69.8098 61.9067 70.1938 61.352C70.5991 60.776 70.8018 60.104 70.8018 59.336C70.8018 58.4613 70.6098 57.7573 70.2258 57.224C69.8418 56.6693 69.3298 56.2213 68.6898 55.88C68.0498 55.5173 67.3244 55.208 66.5138 54.952C65.7031 54.696 64.8604 54.4187 63.9858 54.12C62.1511 53.48 60.7964 52.7013 59.9218 51.784C59.0684 50.8453 58.6417 49.6613 58.6417 48.232C58.6417 47.0587 58.9191 46.024 59.4737 45.128C60.0497 44.232 60.8604 43.528 61.9058 43.016C62.9724 42.4827 64.2311 42.216 65.6818 42.216C67.1111 42.216 68.3484 42.4827 69.3938 43.016C70.4604 43.5493 71.2924 44.2853 71.8898 45.224C72.4871 46.1413 72.7858 47.208 72.7858 48.424H69.9698C69.9698 47.72 69.7991 47.0693 69.4578 46.472C69.1378 45.8747 68.6471 45.3947 67.9858 45.032C67.3244 44.648 66.5031 44.456 65.5218 44.456C64.7111 44.456 63.9858 44.584 63.3458 44.84C62.7271 45.096 62.2364 45.4907 61.8738 46.024C61.5324 46.536 61.3618 47.1867 61.3618 47.976C61.3618 48.68 61.5111 49.256 61.8098 49.704C62.1084 50.152 62.5351 50.536 63.0898 50.856C63.6658 51.176 64.3484 51.4853 65.1378 51.784C65.9271 52.0613 66.8231 52.3707 67.8258 52.712C68.9138 53.0747 69.8844 53.5227 70.7378 54.056C71.5911 54.568 72.2631 55.2293 72.7537 56.04C73.2444 56.8507 73.4897 57.8747 73.4897 59.112C73.4897 60.1787 73.2124 61.192 72.6578 62.152C72.1031 63.112 71.2711 63.8907 70.1618 64.488C69.0524 65.0853 67.6551 65.384 65.9698 65.384ZM76.8375 65V42.6H83.7175C86.3202 42.6 88.4748 43.0587 90.1815 43.976C91.9095 44.872 93.1788 46.1627 93.9895 47.848C94.8215 49.512 95.2375 51.5173 95.2375 53.864C95.2375 56.168 94.8215 58.152 93.9895 59.816C93.1788 61.48 91.9095 62.76 90.1815 63.656C88.4748 64.552 86.3202 65 83.7175 65H76.8375ZM79.5255 62.76H83.6535C85.8082 62.76 87.5362 62.408 88.8375 61.704C90.1388 60.9787 91.0668 59.9547 91.6215 58.632C92.1762 57.288 92.4535 55.6987 92.4535 53.864C92.4535 51.9867 92.1762 50.376 91.6215 49.032C91.0668 47.688 90.1388 46.6533 88.8375 45.928C87.5362 45.2027 85.8082 44.84 83.6535 44.84H79.5255V62.76Z"/>
</mask>
<path d="M26.1375 65.384C24.0682 65.384 22.2548 64.904 20.6975 63.944C19.1402 62.9627 17.9242 61.608 17.0495 59.88C16.1962 58.152 15.7695 56.136 15.7695 53.832C15.7695 51.5493 16.2068 49.5333 17.0815 47.784C17.9775 46.0347 19.2362 44.6693 20.8575 43.688C22.5002 42.7067 24.4308 42.216 26.6495 42.216C29.1668 42.216 31.2682 42.824 32.9535 44.04C34.6388 45.2347 35.7162 46.9093 36.1855 49.064H33.0815C32.7828 47.72 32.0788 46.6533 30.9695 45.864C29.8602 45.0747 28.4202 44.68 26.6495 44.68C25.0068 44.68 23.5668 45.0533 22.3295 45.8C21.1135 46.5253 20.1748 47.5707 19.5135 48.936C18.8522 50.3013 18.5215 51.9333 18.5215 53.832C18.5215 55.7307 18.8522 57.3733 19.5135 58.76C20.1748 60.1253 21.0922 61.1707 22.2655 61.896C23.4602 62.6213 24.8255 62.984 26.3615 62.984C28.7508 62.984 30.5535 62.28 31.7695 60.872C32.9855 59.464 33.6788 57.5547 33.8495 55.144H27.3855V53.032H36.6015V65H34.2015L33.9135 60.872H33.8495C33.2948 61.8533 32.6548 62.6853 31.9295 63.368C31.2042 64.0293 30.3615 64.5307 29.4015 64.872C28.4628 65.2133 27.3748 65.384 26.1375 65.384ZM47.806 65.384C46.1633 65.384 44.734 65.0853 43.518 64.488C42.302 63.8907 41.3633 63.0587 40.702 61.992C40.0407 60.9253 39.71 59.688 39.71 58.28H42.526C42.526 59.1547 42.718 59.9653 43.102 60.712C43.5073 61.4373 44.094 62.024 44.862 62.472C45.6513 62.8987 46.6327 63.112 47.806 63.112C48.7873 63.112 49.6407 62.9627 50.366 62.664C51.0913 62.344 51.646 61.9067 52.03 61.352C52.4353 60.776 52.638 60.104 52.638 59.336C52.638 58.4613 52.446 57.7573 52.062 57.224C51.678 56.6693 51.166 56.2213 50.526 55.88C49.886 55.5173 49.1607 55.208 48.35 54.952C47.5393 54.696 46.6967 54.4187 45.822 54.12C43.9873 53.48 42.6327 52.7013 41.758 51.784C40.9047 50.8453 40.478 49.6613 40.478 48.232C40.478 47.0587 40.7553 46.024 41.31 45.128C41.886 44.232 42.6967 43.528 43.742 43.016C44.8087 42.4827 46.0673 42.216 47.518 42.216C48.9473 42.216 50.1847 42.4827 51.23 43.016C52.2967 43.5493 53.1287 44.2853 53.726 45.224C54.3233 46.1413 54.622 47.208 54.622 48.424H51.806C51.806 47.72 51.6353 47.0693 51.294 46.472C50.974 45.8747 50.4833 45.3947 49.822 45.032C49.1607 44.648 48.3393 44.456 47.358 44.456C46.5473 44.456 45.822 44.584 45.182 44.84C44.5633 45.096 44.0727 45.4907 43.71 46.024C43.3687 46.536 43.198 47.1867 43.198 47.976C43.198 48.68 43.3473 49.256 43.646 49.704C43.9447 50.152 44.3713 50.536 44.926 50.856C45.502 51.176 46.1847 51.4853 46.974 51.784C47.7633 52.0613 48.6593 52.3707 49.662 52.712C50.75 53.0747 51.7207 53.5227 52.574 54.056C53.4273 54.568 54.0993 55.2293 54.59 56.04C55.0807 56.8507 55.326 57.8747 55.326 59.112C55.326 60.1787 55.0487 61.192 54.494 62.152C53.9393 63.112 53.1073 63.8907 51.998 64.488C50.8887 65.0853 49.4913 65.384 47.806 65.384ZM65.9698 65.384C64.3271 65.384 62.8978 65.0853 61.6818 64.488C60.4658 63.8907 59.5271 63.0587 58.8657 61.992C58.2044 60.9253 57.8737 59.688 57.8737 58.28H60.6897C60.6897 59.1547 60.8817 59.9653 61.2657 60.712C61.6711 61.4373 62.2578 62.024 63.0258 62.472C63.8151 62.8987 64.7964 63.112 65.9698 63.112C66.9511 63.112 67.8044 62.9627 68.5298 62.664C69.2551 62.344 69.8098 61.9067 70.1938 61.352C70.5991 60.776 70.8018 60.104 70.8018 59.336C70.8018 58.4613 70.6098 57.7573 70.2258 57.224C69.8418 56.6693 69.3298 56.2213 68.6898 55.88C68.0498 55.5173 67.3244 55.208 66.5138 54.952C65.7031 54.696 64.8604 54.4187 63.9858 54.12C62.1511 53.48 60.7964 52.7013 59.9218 51.784C59.0684 50.8453 58.6417 49.6613 58.6417 48.232C58.6417 47.0587 58.9191 46.024 59.4737 45.128C60.0497 44.232 60.8604 43.528 61.9058 43.016C62.9724 42.4827 64.2311 42.216 65.6818 42.216C67.1111 42.216 68.3484 42.4827 69.3938 43.016C70.4604 43.5493 71.2924 44.2853 71.8898 45.224C72.4871 46.1413 72.7858 47.208 72.7858 48.424H69.9698C69.9698 47.72 69.7991 47.0693 69.4578 46.472C69.1378 45.8747 68.6471 45.3947 67.9858 45.032C67.3244 44.648 66.5031 44.456 65.5218 44.456C64.7111 44.456 63.9858 44.584 63.3458 44.84C62.7271 45.096 62.2364 45.4907 61.8738 46.024C61.5324 46.536 61.3618 47.1867 61.3618 47.976C61.3618 48.68 61.5111 49.256 61.8098 49.704C62.1084 50.152 62.5351 50.536 63.0898 50.856C63.6658 51.176 64.3484 51.4853 65.1378 51.784C65.9271 52.0613 66.8231 52.3707 67.8258 52.712C68.9138 53.0747 69.8844 53.5227 70.7378 54.056C71.5911 54.568 72.2631 55.2293 72.7537 56.04C73.2444 56.8507 73.4897 57.8747 73.4897 59.112C73.4897 60.1787 73.2124 61.192 72.6578 62.152C72.1031 63.112 71.2711 63.8907 70.1618 64.488C69.0524 65.0853 67.6551 65.384 65.9698 65.384ZM76.8375 65V42.6H83.7175C86.3202 42.6 88.4748 43.0587 90.1815 43.976C91.9095 44.872 93.1788 46.1627 93.9895 47.848C94.8215 49.512 95.2375 51.5173 95.2375 53.864C95.2375 56.168 94.8215 58.152 93.9895 59.816C93.1788 61.48 91.9095 62.76 90.1815 63.656C88.4748 64.552 86.3202 65 83.7175 65H76.8375ZM79.5255 62.76H83.6535C85.8082 62.76 87.5362 62.408 88.8375 61.704C90.1388 60.9787 91.0668 59.9547 91.6215 58.632C92.1762 57.288 92.4535 55.6987 92.4535 53.864C92.4535 51.9867 92.1762 50.376 91.6215 49.032C91.0668 47.688 90.1388 46.6533 88.8375 45.928C87.5362 45.2027 85.8082 44.84 83.6535 44.84H79.5255V62.76Z" fill="#408A38"/>
<path d="M20.6975 63.944L20.5909 64.1132L20.5926 64.1143L20.6975 63.944ZM17.0495 59.88L16.8702 59.9686L16.8711 59.9703L17.0495 59.88ZM17.0815 47.784L16.9035 47.6928L16.9026 47.6946L17.0815 47.784ZM20.8575 43.688L20.7549 43.5163L20.7539 43.5169L20.8575 43.688ZM32.9535 44.04L32.8365 44.2022L32.8378 44.2032L32.9535 44.04ZM36.1855 49.064V49.264H36.4338L36.3809 49.0214L36.1855 49.064ZM33.0815 49.064L32.8863 49.1074L32.9211 49.264H33.0815V49.064ZM30.9695 45.864L31.0855 45.701L31.0855 45.701L30.9695 45.864ZM22.3295 45.8L22.432 45.9718L22.4328 45.9712L22.3295 45.8ZM19.5135 58.76L19.333 58.8461L19.3335 58.8472L19.5135 58.76ZM22.2655 61.896L22.1603 62.0661L22.1617 62.067L22.2655 61.896ZM31.7695 60.872L31.6181 60.7413L31.6181 60.7413L31.7695 60.872ZM33.8495 55.144L34.049 55.1581L34.0642 54.944H33.8495V55.144ZM27.3855 55.144H27.1855V55.344H27.3855V55.144ZM27.3855 53.032V52.832H27.1855V53.032H27.3855ZM36.6015 53.032H36.8015V52.832H36.6015V53.032ZM36.6015 65V65.2H36.8015V65H36.6015ZM34.2015 65L34.002 65.0139L34.015 65.2H34.2015V65ZM33.9135 60.872L34.113 60.8581L34.1 60.672H33.9135V60.872ZM33.8495 60.872V60.672H33.7328L33.6754 60.7736L33.8495 60.872ZM31.9295 63.368L32.0643 63.5158L32.0666 63.5136L31.9295 63.368ZM29.4015 64.872L29.3345 64.6836L29.3332 64.684L29.4015 64.872ZM26.1375 65.184C24.1002 65.184 22.3242 64.7118 20.8025 63.7737L20.5926 64.1143C22.1854 65.0962 24.0361 65.584 26.1375 65.584V65.184ZM20.8041 63.7748C19.2791 62.8138 18.0871 61.4871 17.2279 59.7897L16.8711 59.9703C17.7612 61.7289 19.0013 63.1115 20.5909 64.1132L20.8041 63.7748ZM17.2288 59.7914C16.3915 58.0959 15.9695 56.1112 15.9695 53.832H15.5695C15.5695 56.1608 16.0008 58.2081 16.8702 59.9686L17.2288 59.7914ZM15.9695 53.832C15.9695 51.5752 16.4017 49.5907 17.2604 47.8734L16.9026 47.6946C16.0119 49.4759 15.5695 51.5235 15.5695 53.832H15.9695ZM17.2595 47.8752C18.1392 46.1576 19.3727 44.8205 20.9611 43.8591L20.7539 43.5169C19.0996 44.5182 17.8158 45.9117 16.9035 47.6928L17.2595 47.8752ZM20.9601 43.8597C22.5671 42.8997 24.4611 42.416 26.6495 42.416V42.016C24.4006 42.016 22.4333 42.5137 20.7549 43.5163L20.9601 43.8597ZM26.6495 42.416C29.1339 42.416 31.1919 43.0156 32.8365 44.2022L33.0705 43.8778C31.3444 42.6324 29.1998 42.016 26.6495 42.016V42.416ZM32.8378 44.2032C34.4796 45.3669 35.5306 46.997 35.9901 49.1066L36.3809 49.0214C35.9018 46.8216 34.7981 45.1024 33.0692 43.8768L32.8378 44.2032ZM36.1855 48.864H33.0815V49.264H36.1855V48.864ZM33.2767 49.0206C32.9675 47.6289 32.2356 46.5194 31.0855 45.701L30.8536 46.027C31.9221 46.7873 32.5982 47.8111 32.8863 49.1074L33.2767 49.0206ZM31.0855 45.701C29.9334 44.8813 28.4493 44.48 26.6495 44.48V44.88C28.391 44.88 29.787 45.268 30.8536 46.027L31.0855 45.701ZM26.6495 44.48C24.9755 44.48 23.4988 44.8608 22.2262 45.6288L22.4328 45.9712C23.6349 45.2459 25.0382 44.88 26.6495 44.88V44.48ZM22.227 45.6282C20.9751 46.375 20.0106 47.451 19.3335 48.8488L19.6935 49.0232C20.3391 47.6904 21.2519 46.6756 22.432 45.9718L22.227 45.6282ZM19.3335 48.8488C18.6561 50.2473 18.3215 51.9105 18.3215 53.832H18.7215C18.7215 51.9561 19.0482 50.3554 19.6935 49.0232L19.3335 48.8488ZM18.3215 53.832C18.3215 55.7536 18.6562 57.427 19.333 58.8461L19.694 58.6739C19.0482 57.3197 18.7215 55.7077 18.7215 53.832H18.3215ZM19.3335 58.8472C20.0097 60.2432 20.9515 61.3188 22.1603 62.0661L22.3707 61.7259C21.2328 61.0225 20.34 60.0075 19.6935 58.6728L19.3335 58.8472ZM22.1617 62.067C23.3907 62.8131 24.7926 63.184 26.3615 63.184V62.784C24.8584 62.784 23.5296 62.4295 22.3693 61.725L22.1617 62.067ZM26.3615 63.184C28.7912 63.184 30.6567 62.4666 31.9209 61.0027L31.6181 60.7413C30.4504 62.0934 28.7104 62.784 26.3615 62.784V63.184ZM31.9209 61.0027C33.1725 59.5535 33.8762 57.5989 34.049 55.1581L33.65 55.1299C33.4815 57.5104 32.7985 59.3745 31.6181 60.7413L31.9209 61.0027ZM33.8495 54.944H27.3855V55.344H33.8495V54.944ZM27.5855 55.144V53.032H27.1855V55.144H27.5855ZM27.3855 53.232H36.6015V52.832H27.3855V53.232ZM36.4015 53.032V65H36.8015V53.032H36.4015ZM36.6015 64.8H34.2015V65.2H36.6015V64.8ZM34.401 64.9861L34.113 60.8581L33.714 60.8859L34.002 65.0139L34.401 64.9861ZM33.9135 60.672H33.8495V61.072H33.9135V60.672ZM33.6754 60.7736C33.1293 61.7397 32.5013 62.5552 31.7924 63.2224L32.0666 63.5136C32.8083 62.8155 33.4603 61.967 34.0236 60.9704L33.6754 60.7736ZM31.7947 63.2202C31.0898 63.8629 30.2704 64.3508 29.3345 64.6836L29.4685 65.0604C30.4526 64.7105 31.3185 64.1957 32.0643 63.5158L31.7947 63.2202ZM29.3332 64.684C28.4209 65.0158 27.3569 65.184 26.1375 65.184V65.584C27.3928 65.584 28.5047 65.4109 29.4698 65.06L29.3332 64.684ZM43.518 64.488L43.6062 64.3085L43.6062 64.3085L43.518 64.488ZM40.702 61.992L40.532 62.0974L40.532 62.0974L40.702 61.992ZM39.71 58.28V58.08H39.51V58.28H39.71ZM42.526 58.28H42.726V58.08H42.526V58.28ZM43.102 60.712L42.924 60.8035L42.9274 60.8096L43.102 60.712ZM44.862 62.472L44.7612 62.6448L44.7669 62.6479L44.862 62.472ZM50.366 62.664L50.4422 62.849L50.4467 62.847L50.366 62.664ZM52.03 61.352L51.8664 61.2369L51.8656 61.2382L52.03 61.352ZM52.062 57.224L51.8975 57.3379L51.8997 57.3409L52.062 57.224ZM50.526 55.88L50.4274 56.0541L50.4319 56.0565L50.526 55.88ZM48.35 54.952L48.2898 55.1427L48.2898 55.1427L48.35 54.952ZM45.822 54.12L45.7561 54.3088L45.7574 54.3093L45.822 54.12ZM41.758 51.784L41.61 51.9186L41.6133 51.922L41.758 51.784ZM41.31 45.128L41.1417 45.0198L41.1399 45.0227L41.31 45.128ZM43.742 43.016L43.83 43.1956L43.8314 43.1949L43.742 43.016ZM51.23 43.016L51.1391 43.1942L51.1406 43.1949L51.23 43.016ZM53.726 45.224L53.5573 45.3314L53.5584 45.3331L53.726 45.224ZM54.622 48.424V48.624H54.822V48.424H54.622ZM51.806 48.424H51.606V48.624H51.806V48.424ZM51.294 46.472L51.1176 46.5665L51.1204 46.5712L51.294 46.472ZM49.822 45.032L49.7215 45.205L49.7258 45.2074L49.822 45.032ZM45.182 44.84L45.1077 44.6543L45.1055 44.6552L45.182 44.84ZM43.71 46.024L43.5446 45.9115L43.5436 45.9131L43.71 46.024ZM44.926 50.856L44.826 51.0293L44.8289 51.0308L44.926 50.856ZM46.974 51.784L46.9032 51.9711L46.9077 51.9727L46.974 51.784ZM49.662 52.712L49.5975 52.9013L49.5988 52.9017L49.662 52.712ZM52.574 54.056L52.468 54.2256L52.4711 54.2275L52.574 54.056ZM54.59 56.04L54.4189 56.1436L54.4189 56.1436L54.59 56.04ZM54.494 62.152L54.6672 62.2521L54.6672 62.2521L54.494 62.152ZM51.998 64.488L52.0928 64.6641L52.0928 64.6641L51.998 64.488ZM47.806 65.184C46.1875 65.184 44.7895 64.8898 43.6062 64.3085L43.4298 64.6675C44.6785 65.2809 46.1392 65.584 47.806 65.584V65.184ZM43.6062 64.3085C42.4211 63.7263 41.512 62.9188 40.872 61.8866L40.532 62.0974C41.2147 63.1985 42.1829 64.055 43.4298 64.6675L43.6062 64.3085ZM40.872 61.8866C40.2326 60.8553 39.91 59.6554 39.91 58.28H39.51C39.51 59.7206 39.8487 60.9953 40.532 62.0974L40.872 61.8866ZM39.71 58.48H42.526V58.08H39.71V58.48ZM42.326 58.28C42.326 59.1851 42.525 60.0273 42.9241 60.8035L43.2799 60.6205C42.911 59.9034 42.726 59.1242 42.726 58.28H42.326ZM42.9274 60.8096C43.3514 61.5683 43.9646 62.18 44.7612 62.6448L44.9628 62.2992C44.2234 61.868 43.6633 61.3064 43.2766 60.6144L42.9274 60.8096ZM44.7669 62.6479C45.5931 63.0945 46.6094 63.312 47.806 63.312V62.912C46.656 62.912 45.7096 62.7028 44.9571 62.2961L44.7669 62.6479ZM47.806 63.312C48.8071 63.312 49.6874 63.1597 50.4422 62.8489L50.2899 62.4791C49.5939 62.7656 48.7675 62.912 47.806 62.912V63.312ZM50.4467 62.847C51.1998 62.5147 51.786 62.0558 52.1944 61.4658L51.8656 61.2382C51.506 61.7575 50.9828 62.1733 50.2853 62.481L50.4467 62.847ZM52.1936 61.4671C52.6248 60.8543 52.838 60.1413 52.838 59.336H52.438C52.438 60.0667 52.2459 60.6977 51.8664 61.2369L52.1936 61.4671ZM52.838 59.336C52.838 58.4331 52.6398 57.6842 52.2243 57.1071L51.8997 57.3409C52.2522 57.8305 52.438 58.4895 52.438 59.336H52.838ZM52.2264 57.1102C51.823 56.5274 51.286 56.0587 50.6201 55.7035L50.4319 56.0565C51.046 56.384 51.533 56.8113 51.8976 57.3378L52.2264 57.1102ZM50.6246 55.706C49.9707 55.3355 49.2322 55.0209 48.4102 54.7613L48.2898 55.1427C49.0891 55.3951 49.8013 55.6992 50.4274 56.054L50.6246 55.706ZM48.4102 54.7613C47.6012 54.5058 46.76 54.2289 45.8866 53.9307L45.7574 54.3093C46.6334 54.6084 47.4775 54.8862 48.2898 55.1427L48.4102 54.7613ZM45.8879 53.9312C44.0686 53.2965 42.7469 52.5314 41.9027 51.646L41.6133 51.922C42.5184 52.8713 43.906 53.6635 45.7561 54.3088L45.8879 53.9312ZM41.906 51.6495C41.0904 50.7523 40.678 49.6184 40.678 48.232H40.278C40.278 49.7043 40.7189 50.9383 41.61 51.9185L41.906 51.6495ZM40.678 48.232C40.678 47.0915 40.9471 46.0941 41.4801 45.2333L41.1399 45.0227C40.5635 45.9539 40.278 47.0258 40.278 48.232H40.678ZM41.4782 45.2361C42.0327 44.3737 42.8143 43.6931 43.83 43.1956L43.654 42.8364C42.5791 43.3629 41.7393 44.0903 41.1418 45.0198L41.4782 45.2361ZM43.8314 43.1949C44.865 42.6781 46.0918 42.416 47.518 42.416V42.016C46.0429 42.016 44.7524 42.2872 43.6526 42.8371L43.8314 43.1949ZM47.518 42.416C48.9225 42.416 50.1274 42.678 51.1391 43.1942L51.3209 42.8378C50.2419 42.2874 48.9721 42.016 47.518 42.016V42.416ZM51.1406 43.1949C52.1772 43.7132 52.9808 44.4255 53.5573 45.3314L53.8947 45.1166C53.2765 44.1452 52.4161 43.3854 51.3194 42.8371L51.1406 43.1949ZM53.5584 45.3331C54.1323 46.2145 54.422 47.2423 54.422 48.424H54.822C54.822 47.1737 54.5144 46.0682 53.8936 45.1149L53.5584 45.3331ZM54.622 48.224H51.806V48.624H54.622V48.224ZM52.006 48.424C52.006 47.686 51.8267 47.0011 51.4676 46.3728L51.1204 46.5712C51.444 47.1376 51.606 47.754 51.606 48.424H52.006ZM51.4703 46.3776C51.13 45.7423 50.6095 45.2358 49.9182 44.8566L49.7258 45.2074C50.3572 45.5536 50.818 46.0071 51.1177 46.5664L51.4703 46.3776ZM49.9224 44.859C49.2231 44.453 48.3648 44.256 47.358 44.256V44.656C48.3139 44.656 49.0982 44.843 49.7216 45.205L49.9224 44.859ZM47.358 44.256C46.5263 44.256 45.7751 44.3873 45.1077 44.6543L45.2563 45.0257C45.8689 44.7807 46.5684 44.656 47.358 44.656V44.256ZM45.1055 44.6552C44.4523 44.9255 43.9301 45.3447 43.5446 45.9115L43.8754 46.1365C44.2152 45.6367 44.6744 45.2665 45.2585 45.0248L45.1055 44.6552ZM43.5436 45.9131C43.1749 46.4661 42.998 47.1583 42.998 47.976H43.398C43.398 47.2151 43.5624 46.6059 43.8764 46.1349L43.5436 45.9131ZM42.998 47.976C42.998 48.7075 43.1532 49.3254 43.4796 49.8149L43.8124 49.5931C43.5415 49.1866 43.398 48.6525 43.398 47.976H42.998ZM43.4796 49.8149C43.7983 50.2929 44.2497 50.6967 44.8261 51.0292L45.0259 50.6828C44.4929 50.3753 44.0911 50.011 43.8124 49.5931L43.4796 49.8149ZM44.8289 51.0308C45.4153 51.3566 46.1072 51.6699 46.9032 51.9711L47.0448 51.5969C46.2621 51.3008 45.5887 50.9954 45.0231 50.6812L44.8289 51.0308ZM46.9077 51.9727C47.6978 52.2503 48.5944 52.5598 49.5975 52.9013L49.7265 52.5227C48.7242 52.1815 47.8289 51.8724 47.0403 51.5953L46.9077 51.9727ZM49.5988 52.9017C50.6738 53.2601 51.6298 53.7017 52.468 54.2256L52.68 53.8864C51.8116 53.3436 50.8262 52.8892 49.7252 52.5223L49.5988 52.9017ZM52.4711 54.2275C53.298 54.7236 53.946 55.3622 54.4189 56.1436L54.7611 55.9364C54.2527 55.0965 53.5567 54.4124 52.6769 53.8845L52.4711 54.2275ZM54.4189 56.1436C54.8857 56.9148 55.126 57.9003 55.126 59.112H55.526C55.526 57.8491 55.2756 56.7865 54.7611 55.9364L54.4189 56.1436ZM55.126 59.112C55.126 60.1421 54.8586 61.1211 54.3208 62.0519L54.6672 62.2521C55.2387 61.2629 55.526 60.2152 55.526 59.112H55.126ZM54.3208 62.0519C53.7872 62.9756 52.9844 63.7297 51.9032 64.3119L52.0928 64.6641C53.2303 64.0516 54.0915 63.2484 54.6672 62.2521L54.3208 62.0519ZM51.9032 64.3119C50.8312 64.8891 49.469 65.184 47.806 65.184V65.584C49.5137 65.584 50.9462 65.2815 52.0928 64.6641L51.9032 64.3119ZM61.6818 64.488L61.7699 64.3085L61.7699 64.3085L61.6818 64.488ZM58.8657 61.992L58.6958 62.0974L58.6958 62.0974L58.8657 61.992ZM57.8737 58.28V58.08H57.6737V58.28H57.8737ZM60.6897 58.28H60.8897V58.08H60.6897V58.28ZM61.2657 60.712L61.0878 60.8035L61.0912 60.8096L61.2657 60.712ZM63.0258 62.472L62.9249 62.6448L62.9306 62.6479L63.0258 62.472ZM68.5298 62.664L68.6059 62.849L68.6105 62.847L68.5298 62.664ZM70.1938 61.352L70.0302 61.2369L70.0293 61.2382L70.1938 61.352ZM70.2258 57.224L70.0613 57.3379L70.0634 57.3409L70.2258 57.224ZM68.6898 55.88L68.5911 56.0541L68.5956 56.0565L68.6898 55.88ZM66.5138 54.952L66.4535 55.1427L66.4535 55.1427L66.5138 54.952ZM63.9858 54.12L63.9199 54.3088L63.9211 54.3093L63.9858 54.12ZM59.9218 51.784L59.7737 51.9186L59.777 51.922L59.9218 51.784ZM59.4737 45.128L59.3055 45.0198L59.3037 45.0227L59.4737 45.128ZM61.9058 43.016L61.9937 43.1956L61.9952 43.1949L61.9058 43.016ZM69.3938 43.016L69.3029 43.1942L69.3043 43.1949L69.3938 43.016ZM71.8898 45.224L71.721 45.3314L71.7222 45.3331L71.8898 45.224ZM72.7858 48.424V48.624H72.9858V48.424H72.7858ZM69.9698 48.424H69.7698V48.624H69.9698V48.424ZM69.4578 46.472L69.2814 46.5665L69.2841 46.5712L69.4578 46.472ZM67.9858 45.032L67.8853 45.205L67.8896 45.2074L67.9858 45.032ZM63.3458 44.84L63.2715 44.6543L63.2693 44.6552L63.3458 44.84ZM61.8738 46.024L61.7084 45.9115L61.7073 45.9131L61.8738 46.024ZM63.0898 50.856L62.9898 51.0293L62.9926 51.0308L63.0898 50.856ZM65.1378 51.784L65.067 51.9711L65.0715 51.9727L65.1378 51.784ZM67.8258 52.712L67.7613 52.9013L67.7625 52.9017L67.8258 52.712ZM70.7378 54.056L70.6317 54.2256L70.6349 54.2275L70.7378 54.056ZM72.7537 56.04L72.5826 56.1436L72.5826 56.1436L72.7537 56.04ZM72.6578 62.152L72.8309 62.2521L72.8309 62.2521L72.6578 62.152ZM70.1618 64.488L70.2566 64.6641L70.2566 64.6641L70.1618 64.488ZM65.9698 65.184C64.3513 65.184 62.9533 64.8898 61.7699 64.3085L61.5936 64.6675C62.8422 65.2809 64.3029 65.584 65.9698 65.584V65.184ZM61.7699 64.3085C60.5848 63.7263 59.6757 62.9188 59.0357 61.8866L58.6958 62.0974C59.3784 63.1985 60.3467 64.055 61.5936 64.6675L61.7699 64.3085ZM59.0357 61.8866C58.3963 60.8553 58.0737 59.6554 58.0737 58.28H57.6737C57.6737 59.7206 58.0125 60.9953 58.6958 62.0974L59.0357 61.8866ZM57.8737 58.48H60.6897V58.08H57.8737V58.48ZM60.4897 58.28C60.4897 59.1851 60.6887 60.0273 61.0879 60.8035L61.4436 60.6205C61.0748 59.9034 60.8897 59.1242 60.8897 58.28H60.4897ZM61.0912 60.8096C61.5152 61.5683 62.1283 62.18 62.925 62.6448L63.1265 62.2992C62.3872 61.868 61.827 61.3064 61.4403 60.6144L61.0912 60.8096ZM62.9306 62.6479C63.7568 63.0945 64.7731 63.312 65.9698 63.312V62.912C64.8197 62.912 63.8734 62.7028 63.1209 62.2961L62.9306 62.6479ZM65.9698 63.312C66.9709 63.312 67.8512 63.1597 68.6059 62.8489L68.4536 62.4791C67.7577 62.7656 66.9313 62.912 65.9698 62.912V63.312ZM68.6105 62.847C69.3636 62.5147 69.9498 62.0558 70.3582 61.4658L70.0293 61.2382C69.6697 61.7575 69.1466 62.1733 68.449 62.481L68.6105 62.847ZM70.3573 61.4671C70.7885 60.8543 71.0018 60.1413 71.0018 59.336H70.6018C70.6018 60.0667 70.4097 60.6977 70.0302 61.2369L70.3573 61.4671ZM71.0018 59.336C71.0018 58.4331 70.8035 57.6842 70.3881 57.1071L70.0634 57.3409C70.416 57.8305 70.6018 58.4895 70.6018 59.336H71.0018ZM70.3902 57.1102C69.9867 56.5274 69.4498 56.0587 68.7839 55.7035L68.5956 56.0565C69.2097 56.384 69.6968 56.8113 70.0613 57.3378L70.3902 57.1102ZM68.7884 55.706C68.1345 55.3355 67.396 55.0209 66.574 54.7613L66.4535 55.1427C67.2529 55.3951 67.965 55.6992 68.5911 56.054L68.7884 55.706ZM66.574 54.7613C65.7649 54.5058 64.9237 54.2289 64.0504 53.9307L63.9211 54.3093C64.7971 54.6084 65.6413 54.8862 66.4535 55.1427L66.574 54.7613ZM64.0516 53.9312C62.2324 53.2965 60.9107 52.5314 60.0665 51.646L59.777 51.922C60.6821 52.8713 62.0698 53.6635 63.9199 54.3088L64.0516 53.9312ZM60.0697 51.6495C59.2542 50.7523 58.8417 49.6184 58.8417 48.232H58.4417C58.4417 49.7043 58.8827 50.9383 59.7738 51.9185L60.0697 51.6495ZM58.8417 48.232C58.8417 47.0915 59.1109 46.0941 59.6438 45.2333L59.3037 45.0227C58.7273 45.9539 58.4417 47.0258 58.4417 48.232H58.8417ZM59.642 45.2361C60.1964 44.3737 60.978 43.6931 61.9937 43.1956L61.8178 42.8364C60.7428 43.3629 59.9031 44.0903 59.3055 45.0198L59.642 45.2361ZM61.9952 43.1949C63.0287 42.6781 64.2555 42.416 65.6818 42.416V42.016C64.2067 42.016 62.9161 42.2872 61.8163 42.8371L61.9952 43.1949ZM65.6818 42.416C67.0863 42.416 68.2912 42.678 69.3029 43.1942L69.4846 42.8378C68.4057 42.2874 67.1359 42.016 65.6818 42.016V42.416ZM69.3043 43.1949C70.341 43.7132 71.1445 44.4255 71.721 45.3314L72.0585 45.1166C71.4403 44.1452 70.5799 43.3854 69.4832 42.8371L69.3043 43.1949ZM71.7222 45.3331C72.296 46.2145 72.5858 47.2423 72.5858 48.424H72.9858C72.9858 47.1737 72.6781 46.0682 72.0574 45.1149L71.7222 45.3331ZM72.7858 48.224H69.9698V48.624H72.7858V48.224ZM70.1698 48.424C70.1698 47.686 69.9904 47.0011 69.6314 46.3728L69.2841 46.5712C69.6078 47.1376 69.7698 47.754 69.7698 48.424H70.1698ZM69.634 46.3776C69.2937 45.7423 68.7733 45.2358 68.0819 44.8566L67.8896 45.2074C68.5209 45.5536 68.9818 46.0071 69.2815 46.5664L69.634 46.3776ZM68.0862 44.859C67.3869 44.453 66.5286 44.256 65.5218 44.256V44.656C66.4776 44.656 67.262 44.843 67.8853 45.205L68.0862 44.859ZM65.5218 44.256C64.69 44.256 63.9389 44.3873 63.2715 44.6543L63.42 45.0257C64.0326 44.7807 64.7321 44.656 65.5218 44.656V44.256ZM63.2693 44.6552C62.616 44.9255 62.0938 45.3447 61.7084 45.9115L62.0391 46.1365C62.379 45.6367 62.8382 45.2665 63.4222 45.0248L63.2693 44.6552ZM61.7073 45.9131C61.3387 46.4661 61.1618 47.1583 61.1618 47.976H61.5618C61.5618 47.2151 61.7262 46.6059 62.0402 46.1349L61.7073 45.9131ZM61.1618 47.976C61.1618 48.7075 61.317 49.3254 61.6433 49.8149L61.9762 49.5931C61.7052 49.1866 61.5618 48.6525 61.5618 47.976H61.1618ZM61.6433 49.8149C61.962 50.2929 62.4135 50.6967 62.9898 51.0292L63.1897 50.6828C62.6567 50.3753 62.2548 50.011 61.9762 49.5931L61.6433 49.8149ZM62.9926 51.0308C63.5791 51.3566 64.271 51.6699 65.067 51.9711L65.2085 51.5969C64.4259 51.3008 63.7524 50.9954 63.1869 50.6812L62.9926 51.0308ZM65.0715 51.9727C65.8615 52.2503 66.7582 52.5598 67.7613 52.9013L67.8902 52.5227C66.888 52.1815 65.9926 51.8724 65.204 51.5953L65.0715 51.9727ZM67.7625 52.9017C68.8376 53.2601 69.7935 53.7017 70.6318 54.2256L70.8437 53.8864C69.9753 53.3436 68.9899 52.8892 67.889 52.5223L67.7625 52.9017ZM70.6349 54.2275C71.4617 54.7236 72.1097 55.3622 72.5826 56.1436L72.9248 55.9364C72.4165 55.0965 71.7205 54.4124 70.8406 53.8845L70.6349 54.2275ZM72.5826 56.1436C73.0495 56.9148 73.2897 57.9003 73.2897 59.112H73.6897C73.6897 57.8491 73.4394 56.7865 72.9248 55.9364L72.5826 56.1436ZM73.2897 59.112C73.2897 60.1421 73.0224 61.1211 72.4846 62.0519L72.8309 62.2521C73.4024 61.2629 73.6897 60.2152 73.6897 59.112H73.2897ZM72.4846 62.0519C71.9509 62.9756 71.1482 63.7297 70.0669 64.3119L70.2566 64.6641C71.394 64.0516 72.2553 63.2484 72.8309 62.2521L72.4846 62.0519ZM70.0669 64.3119C68.9949 64.8891 67.6327 65.184 65.9698 65.184V65.584C67.6775 65.584 69.1099 65.2815 70.2566 64.6641L70.0669 64.3119ZM76.8375 65H76.6375V65.2H76.8375V65ZM76.8375 42.6V42.4H76.6375V42.6H76.8375ZM90.1815 43.976L90.0868 44.1522L90.0894 44.1536L90.1815 43.976ZM93.9895 47.848L93.8092 47.9347L93.8106 47.9374L93.9895 47.848ZM93.9895 59.816L93.8106 59.7266L93.8097 59.7284L93.9895 59.816ZM90.1815 63.656L90.0894 63.4784L90.0885 63.4789L90.1815 63.656ZM79.5255 62.76H79.3255V62.96H79.5255V62.76ZM88.8375 61.704L88.9327 61.8799L88.9349 61.8787L88.8375 61.704ZM91.6215 58.632L91.8059 58.7093L91.8064 58.7083L91.6215 58.632ZM91.6215 49.032L91.4366 49.1083L91.4366 49.1083L91.6215 49.032ZM88.8375 45.928L88.7401 46.1027L88.7401 46.1027L88.8375 45.928ZM79.5255 44.84V44.64H79.3255V44.84H79.5255ZM77.0375 65V42.6H76.6375V65H77.0375ZM76.8375 42.8H83.7175V42.4H76.8375V42.8ZM83.7175 42.8C86.298 42.8 88.4175 43.2549 90.0868 44.1522L90.2762 43.7998C88.5321 42.8624 86.3423 42.4 83.7175 42.4V42.8ZM90.0894 44.1536C91.7807 45.0305 93.0182 46.2901 93.8093 47.9347L94.1697 47.7613C93.3395 46.0353 92.0383 44.7135 90.2736 43.7984L90.0894 44.1536ZM93.8106 47.9374C94.6256 49.5674 95.0375 51.5405 95.0375 53.864H95.4375C95.4375 51.4942 95.0174 49.4566 94.1684 47.7586L93.8106 47.9374ZM95.0375 53.864C95.0375 56.1442 94.6258 58.0962 93.8106 59.7266L94.1684 59.9054C95.0172 58.2078 95.4375 56.1918 95.4375 53.864H95.0375ZM93.8097 59.7284C93.0189 61.3517 91.7814 62.6011 90.0894 63.4784L90.2736 63.8336C92.0376 62.9189 93.3388 61.6083 94.1693 59.9036L93.8097 59.7284ZM90.0885 63.4789C88.4188 64.3555 86.2986 64.8 83.7175 64.8V65.2C86.3417 65.2 88.5309 64.7485 90.2745 63.8331L90.0885 63.4789ZM83.7175 64.8H76.8375V65.2H83.7175V64.8ZM79.5255 62.96H83.6535V62.56H79.5255V62.96ZM83.6535 62.96C85.8273 62.96 87.5918 62.6053 88.9327 61.8799L88.7423 61.5281C87.4805 62.2107 85.7891 62.56 83.6535 62.56V62.96ZM88.9349 61.8787C90.2737 61.1325 91.2332 60.075 91.8059 58.7093L91.4371 58.5547C90.9004 59.8344 90.004 60.8249 88.7401 61.5293L88.9349 61.8787ZM91.8064 58.7083C92.3733 57.3347 92.6535 55.7182 92.6535 53.864H92.2535C92.2535 55.6791 91.9791 57.2413 91.4366 58.5557L91.8064 58.7083ZM92.6535 53.864C92.6535 51.9678 92.3735 50.3298 91.8064 48.9557L91.4366 49.1083C91.9789 50.4222 92.2535 52.0056 92.2535 53.864H92.6535ZM91.8064 48.9557C91.234 47.5689 90.2746 46.5 88.9349 45.7533L88.7401 46.1027C90.0031 46.8066 90.8996 47.8071 91.4366 49.1083L91.8064 48.9557ZM88.9349 45.7533C87.5934 45.0056 85.828 44.64 83.6535 44.64V45.04C85.7883 45.04 87.4789 45.3997 88.7401 46.1027L88.9349 45.7533ZM83.6535 44.64H79.5255V45.04H83.6535V44.64ZM79.3255 44.84V62.76H79.7255V44.84H79.3255Z" fill="black" mask="url(#path-3-outside-1_1011_876)"/>
</g>
</g>
</g>
<defs>
<filter id="filter0_d_1011_876" x="0" y="0" width="112" height="112" filterUnits="userSpaceOnUse" color-interpolation-filters="sRGB">
<feFlood flood-opacity="0" result="BackgroundImageFix"/>
<feColorMatrix in="SourceAlpha" type="matrix" values="0 0 0 0 0 0 0 0 0 0 0 0 0 0 0 0 0 0 127 0" result="hardAlpha"/>
<feOffset dy="2"/>
<feGaussianBlur stdDeviation="3"/>
<feColorMatrix type="matrix" values="0 0 0 0 0 0 0 0 0 0 0 0 0 0 0 0 0 0 0.05 0"/>
<feBlend mode="normal" in2="BackgroundImageFix" result="effect1_dropShadow_1011_876"/>
<feBlend mode="normal" in="SourceGraphic" in2="effect1_dropShadow_1011_876" result="shape"/>
</filter>
<filter id="filter1_d_1011_876" x="11.5696" y="42.016" width="87.8679" height="31.568" filterUnits="userSpaceOnUse" color-interpolation-filters="sRGB">
<feFlood flood-opacity="0" result="BackgroundImageFix"/>
<feColorMatrix in="SourceAlpha" type="matrix" values="0 0 0 0 0 0 0 0 0 0 0 0 0 0 0 0 0 0 127 0" result="hardAlpha"/>
<feOffset dy="4"/>
<feGaussianBlur stdDeviation="2"/>
<feComposite in2="hardAlpha" operator="out"/>
<feColorMatrix type="matrix" values="0 0 0 0 0 0 0 0 0 0 0 0 0 0 0 0 0 0 0.25 0"/>
<feBlend mode="normal" in2="BackgroundImageFix" result="effect1_dropShadow_1011_876"/>
<feBlend mode="normal" in="SourceGraphic" in2="effect1_dropShadow_1011_876" result="shape"/>
</filter>
<clipPath id="clip0_1011_876">
<rect x="6" y="4" width="100" height="100" rx="5" fill="white"/>
</clipPath>
</defs>
</svg>
