<svg width="32" height="32" viewBox="0 0 32 32" fill="none" xmlns="http://www.w3.org/2000/svg">
<g filter="url(#filter0_d_827_12480)">
<g clip-path="url(#clip0_827_12480)">
<path d="M11.0715 23.9293C9.88207 23.8752 9.23595 23.6772 8.80619 23.5096C8.23675 23.2879 7.83077 23.024 7.40339 22.5972C6.97602 22.1704 6.7115 21.7644 6.49098 21.195C6.32336 20.7652 6.12542 20.1191 6.07133 18.9297C6.01189 17.644 6 17.2582 6 14.0009C6 10.7435 6.01308 10.3584 6.07073 9.07148C6.12483 7.88207 6.32395 7.23714 6.49039 6.80619C6.7121 6.23675 6.97661 5.83077 7.4028 5.4028C7.82958 4.97602 8.23556 4.71091 8.8056 4.49039C9.23536 4.32276 9.88147 4.12483 11.0709 4.07073C12.3572 4.01189 12.7435 4 15.9997 4C19.2571 4 19.6422 4.01308 20.9291 4.07073C22.1185 4.12483 22.7635 4.32395 23.1944 4.49039C23.7638 4.71091 24.1698 4.97602 24.5972 5.4028C25.0246 5.82958 25.2879 6.23616 25.5096 6.8056C25.6772 7.23536 25.8752 7.88147 25.9293 9.07088C25.9881 10.3578 26 10.7429 26 14.0003C26 17.2565 25.9881 17.6428 25.9293 18.9297C25.8752 20.1191 25.676 20.7652 25.5096 21.195C25.2879 21.7644 25.024 22.1704 24.5972 22.5972C24.1704 23.024 23.7638 23.2879 23.1944 23.5096C22.7646 23.6772 22.1185 23.8752 20.9291 23.9293C19.6434 23.9881 19.2571 24 15.9997 24C12.7435 24 12.3572 23.9887 11.0715 23.9293Z" fill="white"/>
<path d="M15.5 7.83238C11.8241 7.83238 8.83252 10.824 8.83252 14.4999C8.83252 18.1758 11.8241 21.1674 15.5 21.1674C19.1759 21.1674 22.1675 18.1758 22.1675 14.4999C22.1675 10.824 19.1759 7.83238 15.5 7.83238Z" fill="white"/>
<path d="M15.5 20.3349C12.2836 20.3349 9.66504 17.7188 9.66504 14.4999C9.66504 11.2811 12.2836 8.66494 15.5 8.66494C18.7164 8.66494 21.335 11.2835 21.335 14.4999C21.335 17.7163 18.7164 20.3349 15.5 20.3349Z" fill="#FFC10D"/>
<path d="M15.5 6.99988C11.3622 6.99988 8 10.362 8 14.4999C8 18.6378 11.3622 21.9999 15.5 21.9999C19.6378 21.9999 23 18.6378 23 14.4999C23 10.362 19.6378 6.99988 15.5 6.99988ZM13.3434 8.19305C12.8863 8.75383 12.496 9.49494 12.1996 10.367C11.671 10.2212 11.1843 10.0433 10.747 9.83336C11.4659 9.09966 12.3528 8.53151 13.3434 8.19305ZM10.1838 10.4806C10.71 10.7548 11.3078 10.9821 11.9624 11.1624C11.7376 12.0443 11.5993 13.0325 11.5721 14.0824H8.84734C8.92885 12.736 9.41798 11.4959 10.1838 10.4806ZM10.1838 18.5191C9.4155 17.5063 8.9313 16.2662 8.8473 14.9173H11.5696C11.5993 15.9648 11.7351 16.9529 11.9599 17.8373C11.3103 18.0127 10.71 18.245 10.1838 18.5191ZM10.747 19.1688C11.1843 18.9564 11.671 18.7785 12.1996 18.6352C12.4985 19.5097 12.8913 20.2484 13.3483 20.8116C12.3552 20.4683 11.4659 19.9001 10.747 19.1688ZM15.0825 21.1032C14.2475 20.8487 13.5064 19.8532 13.0148 18.445C13.667 18.3191 14.3636 18.2425 15.0825 18.2202V21.1032ZM15.0825 17.3853C14.2821 17.41 13.5064 17.494 12.7727 17.6422C12.5603 16.8146 12.4293 15.8907 12.3997 14.9174H15.08V17.3853H15.0825ZM15.0825 14.0824H12.4022C12.4318 13.109 12.5652 12.1802 12.7752 11.3576C13.504 11.5058 14.2846 11.5898 15.085 11.6145V14.0824H15.0825ZM15.0825 10.7795C14.3661 10.7598 13.667 10.6832 13.0148 10.5547C13.5039 9.14663 14.245 8.15106 15.0825 7.89659V10.7795ZM20.8162 10.4806C21.5845 11.4959 22.0711 12.736 22.1527 14.0824H19.4303C19.4007 13.0301 19.2648 12.0444 19.04 11.1625C19.6897 10.9821 20.29 10.7548 20.8162 10.4806ZM20.2529 9.83091C19.8157 10.0434 19.329 10.2212 18.8004 10.3645C18.5015 9.4925 18.1161 8.75139 17.6566 8.19061C18.6472 8.53151 19.5341 9.09966 20.2529 9.83091ZM15.9175 7.89663C16.7525 8.15109 17.4935 9.14663 17.9852 10.5548C17.333 10.6807 16.6363 10.7548 15.9175 10.7796V7.89663ZM15.9175 11.612C16.7179 11.5874 17.4935 11.5034 18.2272 11.3551C18.4397 12.1827 18.5706 13.1066 18.6003 14.0799H15.9175V11.612ZM15.9175 14.9174H18.5978C18.5681 15.8907 18.4347 16.8171 18.2248 17.6422C17.4935 17.494 16.7154 17.41 15.915 17.3853L15.9175 14.9174ZM15.9175 21.1032V18.2203C16.6339 18.24 17.333 18.3166 17.9852 18.4451C17.4935 19.8532 16.7524 20.8487 15.9175 21.1032ZM17.6517 20.8067C18.1111 20.2435 18.5015 19.5048 18.8004 18.6303C19.329 18.776 19.8157 18.9539 20.253 19.1639C19.5341 19.9001 18.6448 20.4683 17.6517 20.8067ZM20.8162 18.5191C20.29 18.2449 19.6922 18.0177 19.0425 17.8373C19.2673 16.9554 19.4031 15.9673 19.4328 14.9174H22.1551C22.0711 16.2637 21.5869 17.5038 20.8162 18.5191Z" fill="#194F82"/>
</g>
</g>
<defs>
<filter id="filter0_d_827_12480" x="0" y="0" width="32" height="32" filterUnits="userSpaceOnUse" color-interpolation-filters="sRGB">
<feFlood flood-opacity="0" result="BackgroundImageFix"/>
<feColorMatrix in="SourceAlpha" type="matrix" values="0 0 0 0 0 0 0 0 0 0 0 0 0 0 0 0 0 0 127 0" result="hardAlpha"/>
<feOffset dy="2"/>
<feGaussianBlur stdDeviation="3"/>
<feColorMatrix type="matrix" values="0 0 0 0 0 0 0 0 0 0 0 0 0 0 0 0 0 0 0.05 0"/>
<feBlend mode="normal" in2="BackgroundImageFix" result="effect1_dropShadow_827_12480"/>
<feBlend mode="normal" in="SourceGraphic" in2="effect1_dropShadow_827_12480" result="shape"/>
</filter>
<clipPath id="clip0_827_12480">
<rect x="6" y="4" width="20" height="20" rx="5" fill="white"/>
</clipPath>
</defs>
</svg>
