<svg width="112" height="112" viewBox="0 0 112 112" fill="none" xmlns="http://www.w3.org/2000/svg">
<g filter="url(#filter0_d_1011_881)">
<g clip-path="url(#clip0_1011_881)">
<path d="M31.3574 103.646C25.4103 103.376 22.1797 102.386 20.031 101.548C17.1838 100.44 15.1539 99.1199 13.017 96.986C10.8801 94.8521 9.55752 92.8222 8.4549 89.975C7.61679 87.8262 6.6271 84.5956 6.35664 78.6486C6.05944 72.22 6 70.2912 6 54.0045C6 37.7177 6.06538 35.7918 6.35367 29.3574C6.62413 23.4103 7.61976 20.1857 8.45193 18.031C9.5605 15.1838 10.8831 13.1539 13.014 11.014C15.1479 8.88008 17.1778 7.55455 20.028 6.45193C22.1768 5.61381 25.4074 4.62413 31.3544 4.35367C37.7859 4.05944 39.7177 4 55.9985 4C72.2853 4 74.2111 4.06538 80.6456 4.35367C86.5926 4.62413 89.8173 5.61976 91.972 6.45193C94.8192 7.55455 96.8491 8.88008 98.986 11.014C101.123 13.1479 102.44 15.1808 103.548 18.028C104.386 20.1768 105.376 23.4074 105.646 29.3544C105.941 35.7889 106 37.7147 106 54.0015C106 70.2823 105.941 72.2141 105.646 78.6486C105.376 84.5956 104.38 87.8262 103.548 89.975C102.44 92.8222 101.12 94.8521 98.986 96.986C96.8521 99.1199 94.8192 100.44 91.972 101.548C89.8232 102.386 86.5926 103.376 80.6456 103.646C74.2171 103.941 72.2853 104 55.9985 104C39.7177 104 37.7859 103.944 31.3574 103.646" fill="white"/>
<g filter="url(#filter1_d_1011_881)">
<path d="M48.4026 87.6943L40.9754 83.5143L42.6128 82.5628C43.5134 82.0394 50.9226 77.8929 59.0778 73.3485C77.2357 63.23 76.0238 63.973 76.0238 62.9612C76.0238 62.1455 75.4006 61.5886 74.4879 61.5886C74.2441 61.5886 71.2174 63.1722 67.7615 65.1075C60.4846 69.1833 48.146 76.0678 42.8379 79.0146C40.8185 80.1356 39.0457 81.1635 38.898 81.299C38.3083 81.8399 37.247 81.449 33.3496 79.2548C31.112 77.9951 27.4383 75.9308 25.1859 74.6672L21.0906 72.3699V63.0966V53.8233L32.9528 47.187C39.477 43.5372 44.9121 40.548 45.0307 40.5445C45.1495 40.541 45.213 44.3196 45.1719 48.9413L45.0973 57.3444L41.4067 59.3982C36.2297 62.279 36.2006 62.3001 36.2006 63.1763C36.2006 63.7226 36.4312 64.063 37.0355 64.4086L37.8705 64.886L51.9339 57.0441C59.6689 52.731 66.1561 49.013 66.3505 48.782C66.5932 48.4932 66.7035 47.2326 66.7035 44.7461C66.7035 42.7573 66.7758 40.9478 66.8642 40.725C67.0499 40.2564 66.5797 40.0117 81.1075 48.1387L90.8515 53.5897L90.9999 72.4517L86.5479 74.9172C84.0994 76.2732 80.1895 78.4542 77.8594 79.7637C66.6776 86.0481 56.5027 91.6871 56.1836 91.7759C55.9889 91.8303 52.4874 89.9937 48.4022 87.6947L48.4026 87.6943Z" fill="black"/>
<path d="M48.6286 45.1975C48.6286 38.5768 48.53 35.0729 48.3439 35.0729C48.1873 35.0729 45.8043 36.344 43.0483 37.8974C31.7823 44.2478 21.2481 50.1087 21.0998 50.1087C21.013 50.1087 20.9756 46.3271 21.0167 41.7053L21.0914 33.3019L25.7515 30.6781C31.8772 27.2292 37.9374 23.836 47.872 18.293C55.0737 14.2746 56.0828 13.7871 56.6274 14.0627C56.9659 14.2341 60.8015 16.3651 65.1509 18.7982C69.5004 21.2313 77.0944 25.4774 82.0263 28.2339L90.9935 33.2457V41.6934C90.9935 46.3397 90.8982 50.0886 90.7817 50.0246C90.6652 49.9605 87.6467 48.2738 84.0739 46.2763C68.0007 37.2904 64.4358 35.3464 64.0305 35.3464C63.655 35.3464 63.5975 36.1248 63.5975 41.2169V47.0874L62.6796 47.5446C62.1748 47.7961 59.0927 49.5033 55.8306 51.3386C52.5685 53.1737 49.6137 54.8209 49.2641 54.9989L48.6286 55.3224V45.1978L48.6286 45.1975Z" fill="black"/>
</g>
</g>
</g>
<defs>
<filter id="filter0_d_1011_881" x="0" y="0" width="112" height="112" filterUnits="userSpaceOnUse" color-interpolation-filters="sRGB">
<feFlood flood-opacity="0" result="BackgroundImageFix"/>
<feColorMatrix in="SourceAlpha" type="matrix" values="0 0 0 0 0 0 0 0 0 0 0 0 0 0 0 0 0 0 127 0" result="hardAlpha"/>
<feOffset dy="2"/>
<feGaussianBlur stdDeviation="3"/>
<feColorMatrix type="matrix" values="0 0 0 0 0 0 0 0 0 0 0 0 0 0 0 0 0 0 0.05 0"/>
<feBlend mode="normal" in2="BackgroundImageFix" result="effect1_dropShadow_1011_881"/>
<feBlend mode="normal" in="SourceGraphic" in2="effect1_dropShadow_1011_881" result="shape"/>
</filter>
<filter id="filter1_d_1011_881" x="17" y="13.9994" width="78" height="85.7777" filterUnits="userSpaceOnUse" color-interpolation-filters="sRGB">
<feFlood flood-opacity="0" result="BackgroundImageFix"/>
<feColorMatrix in="SourceAlpha" type="matrix" values="0 0 0 0 0 0 0 0 0 0 0 0 0 0 0 0 0 0 127 0" result="hardAlpha"/>
<feOffset dy="4"/>
<feGaussianBlur stdDeviation="2"/>
<feComposite in2="hardAlpha" operator="out"/>
<feColorMatrix type="matrix" values="0 0 0 0 0 0 0 0 0 0 0 0 0 0 0 0 0 0 0.25 0"/>
<feBlend mode="normal" in2="BackgroundImageFix" result="effect1_dropShadow_1011_881"/>
<feBlend mode="normal" in="SourceGraphic" in2="effect1_dropShadow_1011_881" result="shape"/>
</filter>
<clipPath id="clip0_1011_881">
<rect x="6" y="4" width="100" height="100" rx="5" fill="white"/>
</clipPath>
</defs>
</svg>
